# xmcd
#
# Track frame offsets:
#	182
#	13265
#	27297
#	40955
#	53372
#	66992
#	78135
#	92030
#	103435
#	117565
#	130292
#	144145
#	156200
#	170607
#	184622
#	196760
#	208710
#	223365
#
# Disc length: 3152 seconds
#
# Revision: 1
# Processed by: cddbd v1.5.2PL0 Copyright (c) Steve Scherf et al.
# Submitted via: EasyCDDAExtractor 16.0.6.1
#
DISCID=030c4e12
DTITLE=Jimmy Rushing - Jazz and Blues Collection - Jimmy Rushing - Cd 48
DYEAR=1937
DGENRE=Blues
TTITLE0=Boogie Woogie
TTITLE1=Goin' to Chicago Blues
TTITLE2=Listen My Children
TTITLE3=Exactly Like You
TTITLE4=Pennies From Heaven
TTITLE5=Boo Hoo
TTITLE6=Don't You Miss Your Baby
TTITLE7=Georgianna
TTITLE8=Good Morning Blues
TTITLE9=Now Will You Be Good?
TTITLE10=The Blues I Like To Hear
TTITLE11=Do You Wanna Jump, Children
TTITLE12=Evil Blues
TTITLE13=Blues In The Dark
TTITLE14=I Can't Beleive That You're In Love With Me
TTITLE15=I Want A Little Girl
TTITLE16=I Left My Baby
TTITLE17=London Bridge Is Falling Down
EXTD=
EXTT0=
EXTT1=
EXTT2=
EXTT3=
EXTT4=
EXTT5=
EXTT6=
EXTT7=
EXTT8=
EXTT9=
EXTT10=
EXTT11=
EXTT12=
EXTT13=
EXTT14=
EXTT15=
EXTT16=
EXTT17=
PLAYORDER=
